<?xml version="1.0" encoding="UTF-8" standalone="no"?>
<!-- Created with Inkscape (http://www.inkscape.org/) -->

<svg
   xmlns:dc="http://purl.org/dc/elements/1.1/"
   xmlns:cc="http://creativecommons.org/ns#"
   xmlns:rdf="http://www.w3.org/1999/02/22-rdf-syntax-ns#"
   xmlns:svg="http://www.w3.org/2000/svg"
   xmlns="http://www.w3.org/2000/svg"
   xmlns:sodipodi="http://sodipodi.sourceforge.net/DTD/sodipodi-0.dtd"
   xmlns:inkscape="http://www.inkscape.org/namespaces/inkscape"
   width="250"
   height="250"
   id="svg3056"
   version="1.1"
   inkscape:version="0.48.4 r9939"
   sodipodi:docname="New document 2">
  <defs
     id="defs3058" />
  <sodipodi:namedview
     id="base"
     pagecolor="#ffffff"
     bordercolor="#ff6666"
     borderopacity="1"
     inkscape:pageopacity="0.0"
     inkscape:pageshadow="2"
     inkscape:zoom="1.1716635"
     inkscape:cx="119.31314"
     inkscape:cy="82.258233"
     inkscape:current-layer="layer2"
     showgrid="true"
     inkscape:document-units="px"
     inkscape:grid-bbox="true"
     units="px"
     showborder="true"
     inkscape:showpageshadow="false"
     borderlayer="false"
     inkscape:window-width="1301"
     inkscape:window-height="744"
     inkscape:window-x="65"
     inkscape:window-y="24"
     inkscape:window-maximized="1" />
  <metadata
     id="metadata3061">
    <rdf:RDF>
      <cc:Work
         rdf:about="">
        <dc:format>image/svg+xml</dc:format>
        <dc:type
           rdf:resource="http://purl.org/dc/dcmitype/StillImage" />
        <dc:title></dc:title>
      </cc:Work>
    </rdf:RDF>
  </metadata>
  <g
     id="layer1"
     inkscape:label="Layer 1"
     inkscape:groupmode="layer"
     transform="translate(0,186.00003)">
    <g
       id="g33710">
      <g
         transform="matrix(0.62499995,0,0,0.62499995,-268.84761,-365.07716)"
         id="g10251">
        <rect
           y="486.12411"
           x="431.10611"
           height="200"
           width="200"
           id="rect4764"
           style="fill:#ff2a2a;fill-opacity:1;stroke:none;display:inline" />
        <rect
           style="fill:#ff2a2a;stroke:none;display:inline"
           id="rect4766"
           width="212"
           height="200"
           x="619.10614"
           y="486.12411" />
        <rect
           style="fill:#2b0000;stroke:none;display:inline"
           id="rect4768"
           width="200"
           height="200"
           x="431.10611"
           y="286.12411" />
        <rect
           y="286.12411"
           x="619.10614"
           height="200"
           width="212"
           id="rect4770"
           style="fill:#2b0000;stroke:none;display:inline" />
        <path
           sodipodi:nodetypes="ccccc"
           inkscape:connector-curvature="0"
           id="path4772"
           d="m 431.10611,486.12408 200,0 -104.00001,101 -95.99999,99 z"
           style="fill:#d40000;stroke:none;display:inline" />
        <path
           sodipodi:nodetypes="ccccc"
           inkscape:connector-curvature="0"
           id="path4774"
           d="m 619.10614,486.12408 212,0 0,200 -106,-101 z"
           style="fill:#d40000;fill-opacity:1;stroke:none;display:inline" />
        <path
           sodipodi:nodetypes="ccccc"
           inkscape:connector-curvature="0"
           id="path4776"
           d="m 721.92614,387.12408 109.18,-101 0,200 -212,0 z"
           style="fill:#550000;fill-opacity:1;stroke:none;display:inline" />
        <path
           sodipodi:nodetypes="ccccc"
           inkscape:connector-curvature="0"
           id="path4778"
           d="m 431.10611,286.12408 101,99 99,101 -200,0 z"
           style="fill:#550000;stroke:none;display:inline" />
        <path
           style="fill:#aa0000;stroke:none;display:inline"
           d="m 431.10611,486.12408 200,0 -153.00001,49 -46.99999,151 z"
           id="path4780"
           inkscape:connector-curvature="0"
           sodipodi:nodetypes="ccccc" />
        <path
           style="fill:#aa0000;fill-opacity:1;stroke:none;display:inline"
           d="m 619.10614,486.12408 212,0 0,200 -40.28,-126 z"
           id="path4782"
           inkscape:connector-curvature="0"
           sodipodi:nodetypes="ccccc" />
        <path
           style="fill:#800000;fill-opacity:1;stroke:none;display:inline"
           d="m 774.92614,438.12408 56.18,-152 0,200 -212,0 z"
           id="path4784"
           inkscape:connector-curvature="0"
           sodipodi:nodetypes="ccccc" />
        <path
           style="fill:#800000;stroke:none;display:inline"
           d="m 431.10611,286.12408 41.99999,161 158.00001,39 -200,0 z"
           id="path4786"
           inkscape:connector-curvature="0"
           sodipodi:nodetypes="ccccc" />
      </g>
      <g
         transform="matrix(1.70135,0,0,1.70135,-2848.6277,-2259.3371)"
         id="g4788"
         style="display:inline">
        <path
           d="m 505.3125,566.59375 a 1.601442,1.601442 0 0 0 -1.40625,1.25 l -6.1875,29.1875 a 1.601442,1.601442 0 0 0 1.5625,1.9375 l 17.15625,0 -0.625,2.90625 a 1.601442,1.601442 0 0 0 1.5625,1.9375 l 11.375,0 c 2.12432,0 4.10331,-0.28388 5.90625,-0.875 1.78927,-0.60605 3.36462,-1.42267 4.65625,-2.4375 1.21299,-0.98198 2.3063,-2.10865 3.25,-3.40625 0.94294,-1.28584 1.685,-2.57631 2.21875,-3.875 0.003,-0.008 -0.003,-0.0234 0,-0.0313 0.54008,-1.28404 0.97196,-2.58495 1.28125,-3.90625 0.32831,-1.31347 0.56714,-2.44576 0.6875,-3.46875 0.11278,-0.9873 0.15625,-1.90813 0.15625,-2.75 0,-3.7319 -0.89832,-6.73608 -2.96875,-8.71875 l 0.0313,-0.0313 c -0.006,-0.006 -0.0253,0.006 -0.0313,0 -2.04822,-2.00187 -5.11608,-2.84372 -8.96875,-2.84375 l -11.40625,0 a 1.601442,1.601442 0 0 0 -1.5625,1.25 l -3.84375,18.0625 -9.84375,0 4.71875,-22.25 a 1.601442,1.601442 0 0 0 -1.5625,-1.9375 l -6,0 a 1.601442,1.601442 0 0 0 -0.15625,0 z m 24.46875,13.0625 4.09375,0 c 1.56275,10e-6 2.46112,0.37721 3,0.90625 0.53888,0.52904 0.90623,1.38006 0.90625,2.90625 -3e-5,0.69219 -0.0827,1.49413 -0.1875,2.4375 -0.0926,0.83305 -0.31622,1.94167 -0.71875,3.25 a 1.601442,1.601442 0 0 0 0,0.0313 c -0.36723,1.27301 -0.8488,2.3834 -1.40625,3.3125 -0.48866,0.8144 -1.21985,1.54959 -2.28125,2.21875 -0.96607,0.60904 -2.03051,0.90625 -3.375,0.90625 l -3.40625,0 3.375,-15.96875 z"
           id="path4790"
           style="font-size:40px;font-style:italic;font-variant:normal;font-weight:600;font-stretch:normal;line-height:125%;letter-spacing:-0.00347276px;word-spacing:-0.00347276px;fill:#000000;fill-opacity:1;stroke:none;display:inline;font-family:FreeSans;-inkscape-font-specification:FreeSans Semi-Bold Italic"
           inkscape:original="M 505.46875 568.1875 L 499.28125 597.375 L 518.40625 597.375 L 517.375 602.21875 L 528.75 602.21875 C 530.72329 602.21875 532.52958 601.93958 534.15625 601.40625 C 535.80956 600.84625 537.19246 600.13001 538.3125 599.25 C 539.43246 598.34334 540.42792 597.32959 541.28125 596.15625 C 542.16124 594.95625 542.8325 593.76709 543.3125 592.59375 C 543.81914 591.39376 544.20662 590.15959 544.5 588.90625 C 544.81994 587.62626 545.04957 586.53168 545.15625 585.625 C 545.26286 584.69168 545.3125 583.83585 545.3125 583.0625 C 545.3125 579.56919 544.49706 577.04211 542.84375 575.46875 C 541.21707 573.86878 538.59539 573.06253 534.96875 573.0625 L 523.5625 573.0625 L 519.46875 592.375 L 506.34375 592.375 L 511.46875 568.1875 L 505.46875 568.1875 z M 528.46875 578.0625 L 533.875 578.0625 C 537.5283 578.06252 539.37496 579.86877 539.375 583.46875 C 539.37496 584.26877 539.29411 585.13377 539.1875 586.09375 C 539.08082 587.05377 538.83288 588.23835 538.40625 589.625 C 538.00623 591.01168 537.48374 592.24584 536.84375 593.3125 C 536.20372 594.37918 535.2579 595.28916 534.03125 596.0625 C 532.80457 596.83584 531.41247 597.21875 529.8125 597.21875 L 524.4375 597.21875 L 528.46875 578.0625 z "
           inkscape:radius="1.6012819"
           sodipodi:type="inkscape:offset"
           transform="matrix(2.8795557,0,0,2.8795557,243.62794,-392.79249)" />
        <path
           transform="matrix(2.8795557,0,0,2.8795557,243.62794,-392.79249)"
           sodipodi:type="inkscape:offset"
           inkscape:radius="-0.13531199"
           inkscape:original="M 505.46875 568.1875 L 499.28125 597.375 L 518.40625 597.375 L 517.375 602.21875 L 528.75 602.21875 C 530.72329 602.21875 532.52958 601.93958 534.15625 601.40625 C 535.80956 600.84625 537.19246 600.13001 538.3125 599.25 C 539.43246 598.34334 540.42792 597.32959 541.28125 596.15625 C 542.16124 594.95625 542.8325 593.76709 543.3125 592.59375 C 543.81914 591.39376 544.20662 590.15959 544.5 588.90625 C 544.81994 587.62626 545.04957 586.53168 545.15625 585.625 C 545.26286 584.69168 545.3125 583.83585 545.3125 583.0625 C 545.3125 579.56919 544.49706 577.04211 542.84375 575.46875 C 541.21707 573.86878 538.59539 573.06253 534.96875 573.0625 L 523.5625 573.0625 L 519.46875 592.375 L 506.34375 592.375 L 511.46875 568.1875 L 505.46875 568.1875 z M 528.46875 578.0625 L 533.875 578.0625 C 537.5283 578.06252 539.37496 579.86877 539.375 583.46875 C 539.37496 584.26877 539.29411 585.13377 539.1875 586.09375 C 539.08082 587.05377 538.83288 588.23835 538.40625 589.625 C 538.00623 591.01168 537.48374 592.24584 536.84375 593.3125 C 536.20372 594.37918 535.2579 595.28916 534.03125 596.0625 C 532.80457 596.83584 531.41247 597.21875 529.8125 597.21875 L 524.4375 597.21875 L 528.46875 578.0625 z "
           style="font-size:40px;font-style:italic;font-variant:normal;font-weight:600;font-stretch:normal;line-height:125%;letter-spacing:-0.00347276px;word-spacing:-0.00347276px;fill:#00ffff;fill-opacity:1;stroke:none;display:inline;font-family:FreeSans;-inkscape-font-specification:FreeSans Semi-Bold Italic"
           id="path4792"
           d="m 505.5625,568.3125 -6.125,28.9375 18.96875,0 a 0.13532552,0.13532552 0 0 1 0.0313,0 0.13532552,0.13532552 0 0 1 0.0313,0 0.13532552,0.13532552 0 0 1 0.0313,0.0313 0.13532552,0.13532552 0 0 1 0.0313,0.0313 0.13532552,0.13532552 0 0 1 0,0.0313 0.13532552,0.13532552 0 0 1 0,0.0313 0.13532552,0.13532552 0 0 1 0,0.0313 l -1,4.6875 11.21875,0 c 1.96053,0 3.76323,-0.28405 5.375,-0.8125 1.64182,-0.55611 2.98821,-1.25638 4.09375,-2.125 1.1121,-0.9003 2.09181,-1.93091 2.9375,-3.09375 a 0.13532552,0.13532552 0 0 1 0.0313,0 c 0.87419,-1.19209 1.52461,-2.36917 2,-3.53125 0.50332,-1.19214 0.89565,-2.40946 1.1875,-3.65625 0.316,-1.26422 0.54933,-2.35836 0.65625,-3.25 0.001,-0.0108 -0.001,-0.0205 0,-0.0313 0.10356,-0.91623 0.15625,-1.77257 0.15625,-2.53125 0,-3.47225 -0.82051,-5.9612 -2.4375,-7.5 -1.59106,-1.56494 -4.17466,-2.37497 -7.78125,-2.375 l -11.3125,0 -4.0625,19.21875 a 0.13532552,0.13532552 0 0 1 0,0.0313 0.13532552,0.13532552 0 0 1 -0.0313,0.0313 0.13532552,0.13532552 0 0 1 -0.0313,0.0313 0.13532552,0.13532552 0 0 1 -0.0313,0 0.13532552,0.13532552 0 0 1 -0.0313,0 l -13.125,0 a 0.13532552,0.13532552 0 0 1 -0.0313,0 0.13532552,0.13532552 0 0 1 -0.0313,0 0.13532552,0.13532552 0 0 1 -0.0313,-0.0313 0.13532552,0.13532552 0 0 1 -0.0313,-0.0313 0.13532552,0.13532552 0 0 1 0,-0.0313 0.13532552,0.13532552 0 0 1 0,-0.0313 0.13532552,0.13532552 0 0 1 0,-0.0313 l 5.09375,-24.03125 -5.75,0 z m 22.84375,9.625 c 0.003,-0.003 0.15342,0.006 0.0625,0 l 5.40625,0 c 1.84895,10e-6 3.26835,0.44196 4.21875,1.375 0.9504,0.93304 1.40623,2.33312 1.40625,4.15625 -4e-5,0.80913 -0.0807,1.66362 -0.1875,2.625 -0.10787,0.97075 -0.35258,2.16923 -0.78125,3.5625 -0.40279,1.39629 -0.91554,2.64047 -1.5625,3.71875 -0.65282,1.088 -1.63439,2.03036 -2.875,2.8125 -1.2487,0.78722 -2.65969,1.15625 -4.28125,1.15625 l -5.375,0 a 0.13532552,0.13532552 0 0 1 -0.0313,0 0.13532552,0.13532552 0 0 1 -0.0313,0 0.13532552,0.13532552 0 0 1 -0.0313,-0.0313 0.13532552,0.13532552 0 0 1 -0.0313,-0.0313 0.13532552,0.13532552 0 0 1 0,-0.0313 0.13532552,0.13532552 0 0 1 0,-0.0313 0.13532552,0.13532552 0 0 1 0,-0.0313 l 4.03125,-19.15625 a 0.13532552,0.13532552 0 0 1 0,-0.0313 0.13532552,0.13532552 0 0 1 0.0313,-0.0313 0.13532552,0.13532552 0 0 1 0.0313,-0.0313 z" />
      </g>
    </g>
  </g>
  <g
     inkscape:groupmode="layer"
     id="layer2"
     inkscape:label="Texture" />
</svg>
